%TF.GenerationSoftware,KiCad,Pcbnew,5.99.0-unknown-92c4596252~129~ubuntu20.04.1*%
%TF.CreationDate,2021-06-09T22:53:09+02:00*%
%TF.ProjectId,cubieboard-lora-gateway-lrwan-gs_hf1,63756269-6562-46f6-9172-642d6c6f7261,V1.0*%
%TF.SameCoordinates,Original*%
%TF.FileFunction,Paste,Top*%
%TF.FilePolarity,Positive*%
%FSLAX46Y46*%
G04 Gerber Fmt 4.6, Leading zero omitted, Abs format (unit mm)*
G04 Created by KiCad (PCBNEW 5.99.0-unknown-92c4596252~129~ubuntu20.04.1) date 2021-06-09 22:53:09*
%MOMM*%
%LPD*%
G01*
G04 APERTURE LIST*
%ADD10R,0.480000X0.880000*%
%ADD11R,0.500000X0.900000*%
%ADD12R,0.600000X1.000000*%
%ADD13R,3.000000X2.100000*%
%ADD14R,1.860000X0.390000*%
G04 APERTURE END LIST*
D10*
%TO.C,R1*%
X178970000Y-77240000D03*
X180370000Y-77240000D03*
%TD*%
D11*
%TO.C,D2*%
X189480000Y-123750000D03*
X190880000Y-123750000D03*
%TD*%
D10*
%TO.C,C2*%
X116340000Y-117300000D03*
X117740000Y-117300000D03*
%TD*%
D11*
%TO.C,D1*%
X181590000Y-77240000D03*
X182990000Y-77240000D03*
%TD*%
D10*
%TO.C,R3*%
X180150000Y-123750000D03*
X181550000Y-123750000D03*
%TD*%
%TO.C,R2*%
X186850000Y-123750000D03*
X188250000Y-123750000D03*
%TD*%
D11*
%TO.C,D3*%
X182760000Y-123750000D03*
X184160000Y-123750000D03*
%TD*%
D12*
%TO.C,C1*%
X116340000Y-115830000D03*
X117740000Y-115830000D03*
%TD*%
D13*
%TO.C,Con3*%
X109382500Y-84830000D03*
X109382500Y-114130000D03*
D14*
X108782500Y-87680000D03*
X116982500Y-88080000D03*
X108782500Y-88480000D03*
X116982500Y-88880000D03*
X108782500Y-89280000D03*
X116982500Y-89680000D03*
X108782500Y-90080000D03*
X116982500Y-90480000D03*
X108782500Y-90880000D03*
X116982500Y-91280000D03*
X108782500Y-91680000D03*
X116982500Y-92080000D03*
X108782500Y-92480000D03*
X116982500Y-92880000D03*
X108782500Y-93280000D03*
X116982500Y-93680000D03*
X108782500Y-97280000D03*
X116982500Y-97680000D03*
X108782500Y-98080000D03*
X116982500Y-98480000D03*
X108782500Y-98880000D03*
X116982500Y-99280000D03*
X108782500Y-99680000D03*
X116982500Y-100080000D03*
X108782500Y-100480000D03*
X116982500Y-100880000D03*
X108782500Y-101280000D03*
X116982500Y-101680000D03*
X108782500Y-102080000D03*
X116982500Y-102480000D03*
X108782500Y-102880000D03*
X116982500Y-103280000D03*
X108782500Y-103680000D03*
X116982500Y-104080000D03*
X108782500Y-104480000D03*
X116982500Y-104880000D03*
X108782500Y-105280000D03*
X116982500Y-105680000D03*
X108782500Y-106080000D03*
X116982500Y-106480000D03*
X108782500Y-106880000D03*
X116982500Y-107280000D03*
X108782500Y-107680000D03*
X116982500Y-108080000D03*
X108782500Y-108480000D03*
X116982500Y-108880000D03*
X108782500Y-109280000D03*
X116982500Y-109680000D03*
X108782500Y-110080000D03*
X116982500Y-110480000D03*
X108782500Y-110880000D03*
X116982500Y-111280000D03*
%TD*%
M02*
