%TF.GenerationSoftware,KiCad,Pcbnew,(5.99.0-10624-g2131a44889)*%
%TF.CreationDate,2021-05-25T20:44:56+02:00*%
%TF.ProjectId,cubieboard-lora-gateway-lrwan-gs_hf1,63756269-6562-46f6-9172-642d6c6f7261,V1.0*%
%TF.SameCoordinates,Original*%
%TF.FileFunction,Legend,Bot*%
%TF.FilePolarity,Positive*%
%FSLAX46Y46*%
G04 Gerber Fmt 4.6, Leading zero omitted, Abs format (unit mm)*
G04 Created by KiCad (PCBNEW (5.99.0-10624-g2131a44889)) date 2021-05-25 20:44:56*
%MOMM*%
%LPD*%
G01*
G04 APERTURE LIST*
%ADD10C,0.150000*%
G04 APERTURE END LIST*
D10*
%TO.C,Con1*%
X156631428Y-71887142D02*
X156679047Y-71934761D01*
X156821904Y-71982380D01*
X156917142Y-71982380D01*
X157060000Y-71934761D01*
X157155238Y-71839523D01*
X157202857Y-71744285D01*
X157250476Y-71553809D01*
X157250476Y-71410952D01*
X157202857Y-71220476D01*
X157155238Y-71125238D01*
X157060000Y-71030000D01*
X156917142Y-70982380D01*
X156821904Y-70982380D01*
X156679047Y-71030000D01*
X156631428Y-71077619D01*
X156060000Y-71982380D02*
X156155238Y-71934761D01*
X156202857Y-71887142D01*
X156250476Y-71791904D01*
X156250476Y-71506190D01*
X156202857Y-71410952D01*
X156155238Y-71363333D01*
X156060000Y-71315714D01*
X155917142Y-71315714D01*
X155821904Y-71363333D01*
X155774285Y-71410952D01*
X155726666Y-71506190D01*
X155726666Y-71791904D01*
X155774285Y-71887142D01*
X155821904Y-71934761D01*
X155917142Y-71982380D01*
X156060000Y-71982380D01*
X155298095Y-71315714D02*
X155298095Y-71982380D01*
X155298095Y-71410952D02*
X155250476Y-71363333D01*
X155155238Y-71315714D01*
X155012380Y-71315714D01*
X154917142Y-71363333D01*
X154869523Y-71458571D01*
X154869523Y-71982380D01*
X153869523Y-71982380D02*
X154440952Y-71982380D01*
X154155238Y-71982380D02*
X154155238Y-70982380D01*
X154250476Y-71125238D01*
X154345714Y-71220476D01*
X154440952Y-71268095D01*
%TO.C,Con2*%
X155681428Y-127887142D02*
X155729047Y-127934761D01*
X155871904Y-127982380D01*
X155967142Y-127982380D01*
X156110000Y-127934761D01*
X156205238Y-127839523D01*
X156252857Y-127744285D01*
X156300476Y-127553809D01*
X156300476Y-127410952D01*
X156252857Y-127220476D01*
X156205238Y-127125238D01*
X156110000Y-127030000D01*
X155967142Y-126982380D01*
X155871904Y-126982380D01*
X155729047Y-127030000D01*
X155681428Y-127077619D01*
X155110000Y-127982380D02*
X155205238Y-127934761D01*
X155252857Y-127887142D01*
X155300476Y-127791904D01*
X155300476Y-127506190D01*
X155252857Y-127410952D01*
X155205238Y-127363333D01*
X155110000Y-127315714D01*
X154967142Y-127315714D01*
X154871904Y-127363333D01*
X154824285Y-127410952D01*
X154776666Y-127506190D01*
X154776666Y-127791904D01*
X154824285Y-127887142D01*
X154871904Y-127934761D01*
X154967142Y-127982380D01*
X155110000Y-127982380D01*
X154348095Y-127315714D02*
X154348095Y-127982380D01*
X154348095Y-127410952D02*
X154300476Y-127363333D01*
X154205238Y-127315714D01*
X154062380Y-127315714D01*
X153967142Y-127363333D01*
X153919523Y-127458571D01*
X153919523Y-127982380D01*
X153490952Y-127077619D02*
X153443333Y-127030000D01*
X153348095Y-126982380D01*
X153110000Y-126982380D01*
X153014761Y-127030000D01*
X152967142Y-127077619D01*
X152919523Y-127172857D01*
X152919523Y-127268095D01*
X152967142Y-127410952D01*
X153538571Y-127982380D01*
X152919523Y-127982380D01*
%TD*%
M02*
