%TF.GenerationSoftware,KiCad,Pcbnew,(5.99.0-10624-g2131a44889)*%
%TF.CreationDate,2021-05-25T20:44:56+02:00*%
%TF.ProjectId,cubieboard-lora-gateway-lrwan-gs_hf1,63756269-6562-46f6-9172-642d6c6f7261,V1.0*%
%TF.SameCoordinates,Original*%
%TF.FileFunction,Soldermask,Bot*%
%TF.FilePolarity,Negative*%
%FSLAX46Y46*%
G04 Gerber Fmt 4.6, Leading zero omitted, Abs format (unit mm)*
G04 Created by KiCad (PCBNEW (5.99.0-10624-g2131a44889)) date 2021-05-25 20:44:56*
%MOMM*%
%LPD*%
G01*
G04 APERTURE LIST*
G04 Aperture macros list*
%AMRoundRect*
0 Rectangle with rounded corners*
0 $1 Rounding radius*
0 $2 $3 $4 $5 $6 $7 $8 $9 X,Y pos of 4 corners*
0 Add a 4 corners polygon primitive as box body*
4,1,4,$2,$3,$4,$5,$6,$7,$8,$9,$2,$3,0*
0 Add four circle primitives for the rounded corners*
1,1,$1+$1,$2,$3*
1,1,$1+$1,$4,$5*
1,1,$1+$1,$6,$7*
1,1,$1+$1,$8,$9*
0 Add four rect primitives between the rounded corners*
20,1,$1+$1,$2,$3,$4,$5,0*
20,1,$1+$1,$4,$5,$6,$7,0*
20,1,$1+$1,$6,$7,$8,$9,0*
20,1,$1+$1,$8,$9,$2,$3,0*%
G04 Aperture macros list end*
%ADD10C,0.600000*%
%ADD11C,5.400000*%
%ADD12O,2.100000X1.524000*%
%ADD13C,1.524000*%
%ADD14C,1.300000*%
%ADD15C,2.600000*%
%ADD16C,1.600000*%
%ADD17C,1.100000*%
%ADD18RoundRect,0.080000X-0.550000X-0.550000X0.550000X-0.550000X0.550000X0.550000X-0.550000X0.550000X0*%
%ADD19C,1.860000*%
%ADD20C,1.260000*%
%ADD21C,1.360000*%
%ADD22C,1.460000*%
%ADD23RoundRect,0.080000X0.550000X0.550000X-0.550000X0.550000X-0.550000X-0.550000X0.550000X-0.550000X0*%
%ADD24C,1.380000*%
G04 APERTURE END LIST*
D10*
%TO.C,MH1*%
X100690000Y-70630000D03*
X100690000Y-74630000D03*
X98957949Y-73630000D03*
X102422051Y-71630000D03*
X102422051Y-73630000D03*
D11*
X100690000Y-72630000D03*
D10*
X98957949Y-71630000D03*
%TD*%
%TO.C,MH3*%
X100690000Y-124330000D03*
X98957949Y-127330000D03*
X100690000Y-128330000D03*
X102422051Y-125330000D03*
D11*
X100690000Y-126330000D03*
D10*
X102422051Y-127330000D03*
X98957949Y-125330000D03*
%TD*%
D12*
%TO.C,P1*%
X178880000Y-81180000D03*
X178880000Y-83720000D03*
X178880000Y-86260000D03*
%TD*%
D13*
%TO.C,U1*%
X161920000Y-75345000D03*
X161920000Y-77885000D03*
X159380000Y-75345000D03*
X159380000Y-77885000D03*
X156840000Y-75345000D03*
X156840000Y-77885000D03*
X154300000Y-75345000D03*
X154300000Y-77885000D03*
D14*
X151760000Y-75345000D03*
D13*
X151760000Y-77885000D03*
D14*
X149220000Y-75345000D03*
D13*
X149220000Y-77885000D03*
X146680000Y-75345000D03*
X146680000Y-77885000D03*
X144140000Y-75345000D03*
X144140000Y-77885000D03*
D14*
X139060000Y-75345000D03*
D13*
X139060000Y-77885000D03*
X136520000Y-75345000D03*
X136520000Y-77885000D03*
X133980000Y-75345000D03*
X133980000Y-77885000D03*
D14*
X131440000Y-75345000D03*
D13*
X131440000Y-77885000D03*
D14*
X128900000Y-75345000D03*
D13*
X128900000Y-77885000D03*
X126360000Y-75345000D03*
X126360000Y-77885000D03*
X123820000Y-75345000D03*
X123820000Y-77885000D03*
D14*
X121280000Y-75345000D03*
D13*
X121280000Y-77885000D03*
X118740000Y-75345000D03*
X118740000Y-77885000D03*
X116200000Y-75345000D03*
X116200000Y-77885000D03*
X113660000Y-75345000D03*
X113660000Y-77885000D03*
D14*
X111120000Y-75345000D03*
D13*
X111120000Y-77885000D03*
X108580000Y-75345000D03*
X108580000Y-77885000D03*
X106040000Y-75345000D03*
X106040000Y-77885000D03*
D14*
X103500000Y-75345000D03*
D13*
X103500000Y-77885000D03*
X171150000Y-121075000D03*
X171150000Y-123615000D03*
X168610000Y-121075000D03*
X168610000Y-123615000D03*
X166070000Y-121075000D03*
X166070000Y-123615000D03*
X163530000Y-121075000D03*
X163530000Y-123615000D03*
X160990000Y-121075000D03*
X160990000Y-123615000D03*
X158450000Y-121075000D03*
X158450000Y-123615000D03*
X155910000Y-121075000D03*
X155910000Y-123615000D03*
X153370000Y-121075000D03*
X153370000Y-123615000D03*
X150830000Y-121075000D03*
X150830000Y-123615000D03*
X148290000Y-121075000D03*
X148290000Y-123615000D03*
X144140000Y-121075000D03*
X144140000Y-123615000D03*
X141600000Y-121075000D03*
D14*
X141600000Y-123615000D03*
D13*
X139060000Y-121075000D03*
D14*
X139060000Y-123615000D03*
D13*
X136520000Y-121075000D03*
X136520000Y-123615000D03*
X133980000Y-121075000D03*
X133980000Y-123615000D03*
X131440000Y-121075000D03*
X131440000Y-123615000D03*
X128900000Y-121075000D03*
D14*
X128900000Y-123615000D03*
D13*
X126360000Y-121075000D03*
X126360000Y-123615000D03*
X123820000Y-121075000D03*
X123820000Y-123615000D03*
X121280000Y-121075000D03*
D14*
X121280000Y-123615000D03*
D13*
X118740000Y-121075000D03*
D14*
X118740000Y-123615000D03*
D13*
X116200000Y-121075000D03*
D14*
X116200000Y-123615000D03*
D13*
X113660000Y-121075000D03*
D14*
X113660000Y-123615000D03*
D13*
X111120000Y-121075000D03*
D14*
X111120000Y-123615000D03*
D13*
X108580000Y-121075000D03*
X108580000Y-123615000D03*
X106040000Y-121075000D03*
X106040000Y-123615000D03*
X103500000Y-121075000D03*
D14*
X103500000Y-123615000D03*
%TD*%
D10*
%TO.C,MH2*%
X172557949Y-71630000D03*
D11*
X174290000Y-72630000D03*
D10*
X174290000Y-74630000D03*
X172557949Y-73630000D03*
X174290000Y-70630000D03*
X176022051Y-71630000D03*
X176022051Y-73630000D03*
%TD*%
D12*
%TO.C,P2*%
X178880000Y-102900000D03*
X178880000Y-105440000D03*
X178880000Y-107980000D03*
%TD*%
%TO.C,P3*%
X178880000Y-114530000D03*
X178880000Y-117070000D03*
X178880000Y-119610000D03*
%TD*%
D15*
%TO.C,Con3*%
X160932500Y-111580000D03*
D16*
X112882500Y-86980000D03*
D17*
X112882500Y-111980000D03*
D15*
X160932500Y-87380000D03*
%TD*%
D11*
%TO.C,MH4*%
X174290000Y-126330000D03*
D10*
X174290000Y-124330000D03*
X172557949Y-127330000D03*
X174290000Y-128330000D03*
X172557949Y-125330000D03*
X176022051Y-127330000D03*
X176022051Y-125330000D03*
%TD*%
D18*
%TO.C,Con1*%
X151150000Y-73970000D03*
D19*
X151150000Y-71970000D03*
D20*
X149150000Y-73970000D03*
D19*
X149150000Y-71970000D03*
D20*
X147150000Y-73970000D03*
D19*
X147150000Y-71970000D03*
D21*
X145150000Y-73970000D03*
D19*
X145150000Y-71970000D03*
D21*
X143150000Y-73970000D03*
D19*
X143150000Y-71970000D03*
X141150000Y-73970000D03*
X141150000Y-71970000D03*
D20*
X139150000Y-73970000D03*
D19*
X139150000Y-71970000D03*
D21*
X137150000Y-73970000D03*
D19*
X137150000Y-71970000D03*
D22*
X135150000Y-73970000D03*
D19*
X135150000Y-71970000D03*
D22*
X133150000Y-73970000D03*
D19*
X133150000Y-71970000D03*
D20*
X131150000Y-73970000D03*
D19*
X131150000Y-71970000D03*
D20*
X129150000Y-73970000D03*
D19*
X129150000Y-71970000D03*
D21*
X127150000Y-73970000D03*
D19*
X127150000Y-71970000D03*
X125150000Y-73970000D03*
X125150000Y-71970000D03*
D21*
X123150000Y-73970000D03*
D19*
X123150000Y-71970000D03*
D20*
X121150000Y-73970000D03*
D19*
X121140000Y-71970000D03*
D20*
X119150000Y-73970000D03*
D19*
X119150000Y-71970000D03*
D21*
X117150000Y-73970000D03*
D19*
X117150000Y-71970000D03*
D22*
X115150000Y-73970000D03*
D19*
X115150000Y-71970000D03*
D20*
X113150000Y-73970000D03*
D19*
X113150000Y-71970000D03*
D20*
X111150000Y-73970000D03*
D19*
X111150000Y-71970000D03*
D20*
X109150000Y-73970000D03*
D19*
X109150000Y-71970000D03*
D22*
X107150000Y-73970000D03*
D19*
X107150000Y-71970000D03*
D22*
X105150000Y-73970000D03*
D19*
X105150000Y-71970000D03*
%TD*%
D23*
%TO.C,Con2*%
X105140000Y-125000000D03*
D19*
X105140000Y-127000000D03*
X107140000Y-125000000D03*
X107140000Y-127000000D03*
D21*
X109140000Y-125000000D03*
D19*
X109140000Y-127000000D03*
D20*
X111140000Y-125000000D03*
D19*
X111140000Y-127000000D03*
D21*
X113140000Y-125000000D03*
D19*
X113140000Y-127000000D03*
X115140000Y-125000000D03*
X115140000Y-127000000D03*
X117140000Y-125000000D03*
X117140000Y-127000000D03*
D21*
X119140000Y-125000000D03*
D19*
X119140000Y-127000000D03*
D21*
X121140000Y-125000000D03*
D19*
X121140000Y-127000000D03*
D21*
X123140000Y-125000000D03*
D19*
X123140000Y-127000000D03*
X125140000Y-125000000D03*
X125140000Y-127000000D03*
D21*
X127140000Y-125000000D03*
D19*
X127140000Y-127000000D03*
D20*
X129140000Y-125000000D03*
D19*
X129140000Y-127000000D03*
D20*
X131140000Y-125000000D03*
D19*
X131140000Y-127000000D03*
D20*
X133140000Y-125000000D03*
D19*
X133140000Y-127000000D03*
X135140000Y-125000000D03*
X135150000Y-127000000D03*
D21*
X137140000Y-125000000D03*
D19*
X137140000Y-127000000D03*
D21*
X139140000Y-125000000D03*
D19*
X139140000Y-127000000D03*
D21*
X141140000Y-125000000D03*
D19*
X141140000Y-127000000D03*
D21*
X143140000Y-125000000D03*
D19*
X143140000Y-127000000D03*
D21*
X145140000Y-125000000D03*
D19*
X145140000Y-127000000D03*
X147140000Y-125000000D03*
X147140000Y-127000000D03*
D24*
X149140000Y-125000000D03*
D19*
X149140000Y-127000000D03*
D20*
X151140000Y-125000000D03*
D19*
X151140000Y-127000000D03*
%TD*%
M02*
