M48
; DRILL file {KiCad 5.99.0-unknown-92c4596252~129~ubuntu20.04.1} date Wed Jun  9 22:53:06 2021
; FORMAT={-:-/ absolute / inch / decimal}
; #@! TF.CreationDate,2021-06-09T22:53:06+02:00
; #@! TF.GenerationSoftware,Kicad,Pcbnew,5.99.0-unknown-92c4596252~129~ubuntu20.04.1
; #@! TF.FileFunction,Plated,1,2,PTH
FMAT,2
INCH
; #@! TA.AperFunction,Plated,PTH,ViaDrill
T1C0.0118
; #@! TA.AperFunction,Plated,PTH,ComponentDrill
T2C0.0118
; #@! TA.AperFunction,Plated,PTH,ComponentDrill
T3C0.0354
; #@! TA.AperFunction,Plated,PTH,ComponentDrill
T4C0.0394
; #@! TA.AperFunction,Plated,PTH,ComponentDrill
T5C0.0433
; #@! TA.AperFunction,Plated,PTH,ComponentDrill
T6C0.0906
%
G90
G05
T1
X3.9531Y-3.5224
X3.9555Y-4.4094
X3.9559Y-4.1839
X3.9575Y-3.7165
X3.9579Y-3.6409
X3.9587Y-3.45
X3.9587Y-4.1063
X3.9587Y-4.2551
X3.9594Y-4.028
X3.9602Y-3.9531
X3.9602Y-4.3248
X3.9602Y-4.4776
X3.9606Y-3.5697
X3.9606Y-3.8724
X3.9606Y-4.674
X3.961Y-4.5972
X3.9618Y-3.7886
X3.9618Y-4.7362
X3.9622Y-4.5382
X3.9705Y-3.3846
X3.9784Y-4.8037
X4.0004Y-3.3528
X4.0071Y-4.8327
X4.0276Y-3.3024
X4.0291Y-3.2591
X4.0382Y-3.222
X4.039Y-4.5457
X4.039Y-4.5965
X4.039Y-4.6425
X4.039Y-4.6965
X4.0587Y-4.4976
X4.0626Y-3.1437
X4.0634Y-3.1843
X4.0673Y-4.2528
X4.0697Y-4.3335
X4.0705Y-4.3803
X4.0799Y-4.5917
X4.0815Y-4.5224
X4.0824Y-4.1938
X4.089Y-4.6972
X4.0961Y-4.4283
X4.1059Y-4.6323
X4.1173Y-4.561
X4.1185Y-4.3594
X4.1264Y-4.4598
X4.1365Y-4.2448
X4.1512Y-4.5961
X4.1547Y-4.6929
X4.1559Y-4.3992
X4.1575Y-4.6583
X4.1673Y-4.5008
X4.1728Y-4.1988
X4.1779Y-3.2004
X4.1791Y-3.863
X4.1815Y-3.4004
X4.1831Y-3.4583
X4.1835Y-3.5079
X4.1839Y-3.8138
X4.1846Y-3.3409
X4.1846Y-3.7433
X4.1862Y-3.5764
X4.1862Y-3.6386
X4.1862Y-3.6902
X4.1909Y-4.6346
X4.1969Y-4.3327
X4.1996Y-4.5362
X4.2004Y-4.1142
X4.2012Y-4.4165
X4.2016Y-4.1457
X4.2024Y-3.8941
X4.2031Y-4.0205
X4.2035Y-4.239
X4.2047Y-3.9854
X4.2094Y-4.7004
X4.2201Y-3.7843
X4.2217Y-4.6634
X4.2343Y-3.7157
X4.2531Y-4.5815
X4.2575Y-4.4157
X4.2598Y-4.6957
X4.2681Y-3.2512
X4.2748Y-3.7185
X4.2776Y-4.611
X4.2791Y-3.7823
X4.3067Y-3.2157
X4.3106Y-4.4165
X4.3157Y-4.5862
X4.3157Y-4.6465
X4.3173Y-3.7157
X4.3323Y-3.248
X4.3437Y-3.7827
X4.3449Y-4.3665
X4.3492Y-3.9996
X4.352Y-3.2075
X4.352Y-4.6114
X4.3547Y-3.576
X4.3563Y-3.7075
X4.3567Y-4.5756
X4.3575Y-3.6705
X4.3575Y-4.0854
X4.3591Y-4.0402
X4.3591Y-4.4142
X4.3634Y-4.3039
X4.3646Y-3.8591
X4.365Y-3.9465
X4.3657Y-3.4713
X4.3665Y-4.1311
X4.3677Y-3.8122
X4.3713Y-3.9106
X4.3732Y-4.2394
X4.3748Y-3.5118
X4.3815Y-3.2346
X4.3858Y-4.6972
X4.3898Y-3.6063
X4.3929Y-4.0142
X4.3929Y-4.0984
X4.3945Y-4.0594
X4.3949Y-3.9661
X4.398Y-4.1516
X4.3984Y-3.5547
X4.4079Y-4.2362
X4.4126Y-3.2846
X4.4201Y-3.1402
X4.4205Y-3.9354
X4.4236Y-3.3374
X4.4248Y-4.6638
X4.4315Y-4.4807
X4.4327Y-4.5299
X4.435Y-3.6811
X4.4354Y-3.8976
X4.4362Y-3.598
X4.4366Y-3.5102
X4.4366Y-3.5579
X4.4366Y-3.7205
X4.437Y-3.639
X4.4386Y-3.7701
X4.4394Y-3.8602
X4.4402Y-3.8157
X4.4406Y-4.2579
X4.4539Y-3.2972
X4.4555Y-4.6268
X4.4563Y-4.5815
X4.4583Y-3.178
X4.4642Y-4.474
X4.4685Y-4.0579
X4.4693Y-4.5331
X4.4705Y-4.0189
X4.4713Y-4.1531
X4.4717Y-4.0988
X4.4744Y-3.4772
X4.489Y-3.3449
X4.4933Y-4.1941
X4.4941Y-3.9886
X4.4965Y-3.2972
X4.5004Y-4.6941
X4.5008Y-3.389
X4.5035Y-3.45
X4.5138Y-3.1224
X4.5283Y-4.2476
X4.5331Y-4.2087
X4.5339Y-4.5528
X4.5339Y-4.6626
X4.5346Y-3.5854
X4.535Y-3.698
X4.535Y-3.848
X4.5354Y-4.6067
X4.5358Y-3.6449
X4.5366Y-4.5051
X4.5366Y-4.7055
X4.5378Y-4.076
X4.5378Y-4.1224
X4.5386Y-3.9815
X4.5394Y-3.7622
X4.5394Y-4.0272
X4.5394Y-4.1669
X4.5402Y-4.2866
X4.5433Y-3.1579
X4.5476Y-4.4539
X4.5484Y-3.7988
X4.5618Y-3.1315
X4.5823Y-4.6709
X4.5874Y-3.1732
X4.5933Y-4.7028
X4.5949Y-3.4252
X4.5957Y-3.2969
X4.5965Y-3.3878
X4.5969Y-3.3441
X4.5972Y-3.8028
X4.6198Y-4.4834
X4.6283Y-3.3374
X4.6335Y-4.6709
X4.6394Y-3.4201
X4.6409Y-3.8
X4.6465Y-4.4835
X4.6476Y-3.3764
X4.6559Y-4.7091
X4.6693Y-3.9106
X4.6744Y-4.4091
X4.6744Y-4.6496
X4.6764Y-3.4437
X4.6764Y-3.4996
X4.6768Y-3.1776
X4.6827Y-3.7957
X4.6854Y-4.2917
X4.6886Y-3.1366
X4.6906Y-3.3835
X4.6917Y-4.037
X4.6929Y-4.589
X4.6949Y-4.1913
X4.6972Y-3.9701
X4.6976Y-4.0984
X4.6984Y-3.8457
X4.6984Y-3.8783
X4.6996Y-4.7035
X4.7016Y-4.4547
X4.7024Y-4.2484
X4.7051Y-4.1516
X4.7094Y-3.4583
X4.7217Y-3.4957
X4.7232Y-3.6366
X4.7244Y-3.5409
X4.7248Y-3.1181
X4.7252Y-3.7787
X4.7252Y-4.4205
X4.7256Y-3.6827
X4.726Y-3.587
X4.726Y-3.7295
X4.7268Y-3.426
X4.7287Y-3.8189
X4.7291Y-3.9898
X4.7315Y-3.3008
X4.7378Y-4.485
X4.7386Y-4.5835
X4.7394Y-3.1669
X4.7413Y-4.3732
X4.7429Y-4.2736
X4.7508Y-4.6972
X4.7535Y-3.9598
X4.7736Y-3.1335
X4.7787Y-3.1795
X4.7854Y-4.4197
X4.7866Y-3.3508
X4.7878Y-4.2748
X4.7937Y-4.7016
X4.7949Y-4.4776
X4.798Y-3.3008
X4.7992Y-4.5835
X4.802Y-3.9551
X4.8138Y-3.4035
X4.8138Y-3.6843
X4.8138Y-3.7362
X4.8157Y-3.5228
X4.8157Y-3.7976
X4.8157Y-3.8622
X4.8169Y-3.6303
X4.8189Y-3.5748
X4.8197Y-3.1287
X4.8197Y-3.4614
X4.8205Y-4.4362
X4.8339Y-4.7055
X4.8343Y-3.1717
X4.8346Y-4.5843
X4.8425Y-4.2862
X4.848Y-4.4768
X4.85Y-3.8583
X4.8535Y-3.3008
X4.8539Y-3.9535
X4.8697Y-3.1386
X4.878Y-4.4256
X4.8803Y-4.6823
X4.8878Y-4.5843
X4.8894Y-3.8634
X4.9031Y-4.2862
X4.9067Y-3.1827
X4.9118Y-3.9551
X4.9122Y-4.4764
X4.9157Y-4.7043
X4.9232Y-4.2429
X4.9244Y-3.1307
X4.9272Y-3.3008
X4.9311Y-3.8622
X4.9323Y-4.439
X4.9354Y-4.5854
X4.9575Y-4.6988
X4.9583Y-4.2012
X4.9626Y-3.3382
X4.9634Y-4.0154
X4.9634Y-4.0768
X4.9638Y-4.1476
X4.9646Y-3.1472
X4.9654Y-4.2906
X4.9661Y-3.9602
X4.9673Y-3.4008
X4.9673Y-3.8583
X4.9677Y-4.5843
X4.9685Y-3.7441
X4.9693Y-3.5374
X4.9701Y-3.3016
X4.9705Y-3.6598
X4.9705Y-3.8106
X4.9724Y-3.4701
X4.9724Y-3.6039
X4.9744Y-3.1795
X4.9748Y-4.4752
X4.9913Y-4.3902
X4.9984Y-4.6961
X5.0173Y-4.5815
X5.048Y-4.7091
X5.0528Y-4.2909
X5.063Y-3.1697
X5.0642Y-3.3402
X5.0642Y-3.3815
X5.0642Y-3.6791
X5.0646Y-3.5307
X5.0646Y-3.5902
X5.0646Y-3.8059
X5.0657Y-3.2937
X5.0657Y-3.472
X5.0657Y-4.6114
X5.0661Y-3.4224
X5.0685Y-4.0087
X5.0693Y-3.7453
X5.0705Y-4.2248
X5.072Y-4.0598
X5.0732Y-3.965
X5.0732Y-4.1594
X5.074Y-4.1028
X5.0752Y-3.1366
X5.0768Y-4.3283
X5.0839Y-3.8587
X5.1012Y-4.6531
X5.1039Y-4.7118
X5.1051Y-3.1709
X5.1075Y-3.2937
X5.1189Y-4.3701
X5.1217Y-3.9697
X5.122Y-3.1283
X5.1382Y-3.8583
X5.1421Y-4.4122
X5.1421Y-4.6831
X5.1524Y-3.165
X5.1543Y-3.2937
X5.172Y-4.0106
X5.1752Y-3.1299
X5.185Y-4.4232
X5.1894Y-3.8669
X5.1972Y-3.2937
X5.1992Y-3.176
X5.222Y-4.0429
X5.2268Y-4.4677
X5.2283Y-3.1398
X5.2339Y-3.9039
X5.2449Y-3.2929
X5.2524Y-3.1724
X5.2547Y-4.0748
X5.2661Y-3.9429
X5.2791Y-3.1402
X5.2909Y-3.2945
X5.2929Y-4.1177
X5.2961Y-4.585
X5.3031Y-3.9756
X5.3098Y-3.1673
X5.3319Y-4.1594
X5.3343Y-3.1346
X5.3394Y-4.5917
X5.3429Y-3.2953
X5.3484Y-4.0232
X5.3689Y-3.172
X5.3713Y-4.1988
X5.3776Y-4.5854
X5.3795Y-4.6272
X5.3874Y-4.0606
X5.3937Y-3.2953
X5.4024Y-3.1406
X5.4055Y-4.6693
X5.4157Y-4.2406
X5.4252Y-4.1039
X5.4366Y-3.1728
X5.4394Y-4.5862
X5.4421Y-4.7028
X5.4484Y-3.2937
X5.4579Y-4.2807
X5.4642Y-3.1417
X5.4764Y-4.1469
X5.4791Y-4.6803
X5.498Y-4.5843
X5.5004Y-3.2937
X5.5055Y-4.3283
X5.5193Y-4.7
X5.5224Y-4.1953
X5.5232Y-3.1657
X5.528Y-3.1248
X5.5343Y-3.013
X5.5449Y-3.0768
X5.5547Y-4.3795
X5.5567Y-3.2937
X5.563Y-4.5862
X5.5669Y-4.2406
X5.5728Y-3.1677
X5.5732Y-4.6961
X5.5858Y-3.0165
X5.5886Y-3.1339
X5.5937Y-3.0689
X5.6028Y-2.9579
X5.6051Y-4.4327
X5.6079Y-3.2937
X5.6098Y-4.6579
X5.6157Y-4.2913
X5.6311Y-3.176
X5.635Y-3.124
X5.6358Y-4.587
X5.6441Y-4.4764
X5.6453Y-4.6346
X5.6567Y-4.3339
X5.6685Y-3.2957
X5.6791Y-4.5299
X5.6799Y-3.1787
X5.6843Y-4.5854
X5.6882Y-3.139
X5.6992Y-4.3799
X5.7Y-4.6984
X5.7059Y-4.5299
X5.7272Y-3.1567
X5.7346Y-3.2965
X5.7453Y-4.8177
X5.748Y-4.4303
X5.7539Y-4.8803
X5.7791Y-4.5724
X5.7878Y-4.4791
X5.7945Y-3.2965
X5.7945Y-4.7134
X5.7984Y-4.6748
X5.8232Y-3.1157
X5.8252Y-4.6551
X5.835Y-3.0067
X5.835Y-4.5732
X5.8433Y-4.6906
X5.8445Y-3.2012
X5.8575Y-4.4756
X5.863Y-4.6591
X5.8665Y-3.2965
X5.8878Y-4.574
X5.8941Y-4.7004
X5.9035Y-3.2012
X5.9102Y-4.6547
X5.9177Y-3.0138
X5.9228Y-3.1157
X5.9272Y-3.2972
X5.9315Y-4.4772
X5.9331Y-4.6819
X5.9394Y-4.5713
X5.9587Y-3.2012
X5.9587Y-4.6531
X5.9843Y-3.2965
X6.0012Y-4.574
X6.0016Y-4.4736
X6.0118Y-4.9398
X6.0236Y-3.1157
X6.0283Y-2.7811
X6.0291Y-2.8339
X6.0303Y-3.2012
X6.0366Y-2.8957
X6.0476Y-4.5709
X6.0516Y-3.2972
X6.0642Y-4.6984
X6.0673Y-4.4764
X6.078Y-4.9343
X6.0783Y-4.9689
X6.0894Y-4.6657
X6.0937Y-2.8972
X6.102Y-3.2012
X6.1122Y-3.2988
X6.1244Y-3.1157
X6.1299Y-4.6925
X6.1299Y-4.9339
X6.1346Y-4.4823
X6.135Y-4.9701
X6.1394Y-4.6531
X6.1469Y-2.8945
X6.1661Y-3.2996
X6.1685Y-4.9528
X6.1736Y-3.2012
X6.1846Y-4.6559
X6.1961Y-2.8972
X6.2Y-4.7031
X6.2102Y-4.4791
X6.2114Y-4.9358
X6.2205Y-3.2012
X6.2224Y-4.9724
X6.2228Y-3.1157
X6.2299Y-3.2957
X6.2421Y-4.6567
X6.2445Y-2.8917
X6.2488Y-4.6898
X6.265Y-4.9315
X6.2697Y-4.9654
X6.2894Y-3.2012
X6.2929Y-4.7031
X6.2988Y-3.2972
X6.2996Y-4.6598
X6.3004Y-2.8909
X6.3094Y-4.9343
X6.3232Y-3.1157
X6.3354Y-4.9705
X6.3437Y-4.6654
X6.348Y-3.2012
X6.3535Y-2.8937
X6.3559Y-3.2957
X6.363Y-4.9398
X6.3776Y-4.7024
X6.3854Y-4.6598
X6.3925Y-4.9732
X6.4079Y-4.9311
X6.4094Y-2.8984
X6.4169Y-3.2012
X6.4232Y-3.2996
X6.426Y-4.6937
X6.4307Y-3.0043
X6.4378Y-4.6606
X6.4457Y-3.0559
X6.4496Y-2.9421
X6.4539Y-4.9571
X6.4591Y-4.4752
X6.4693Y-3.3535
X6.4709Y-3.0984
X6.472Y-3.2031
X6.4756Y-4.7
X6.4796Y-5.0237
X6.4878Y-4.6591
X6.4878Y-4.928
X6.5008Y-3.3913
X6.5091Y-3.0976
X6.5146Y-5.0035
X6.5154Y-4.472
X6.5213Y-3.1984
X6.522Y-3.2421
X6.5319Y-4.6937
X6.548Y-3.0929
X6.5539Y-4.9681
X6.5555Y-3.4201
X6.5563Y-4.6567
X6.5583Y-5.0614
X6.5591Y-4.4476
X6.5594Y-3.2717
X6.5709Y-4.5736
X6.5795Y-4.6929
X6.5835Y-3.202
X6.5843Y-4.9295
X6.5937Y-3.324
X6.5945Y-4.411
X6.5976Y-5.0406
X6.611Y-4.6575
X6.6114Y-3.1004
X6.6169Y-3.2811
X6.6197Y-3.4484
X6.6252Y-4.5732
X6.6291Y-4.3764
X6.6374Y-3.2264
X6.6378Y-5.0083
X6.6378Y-5.0587
X6.6508Y-3.3378
X6.6512Y-4.6807
X6.6591Y-4.4854
X6.6626Y-3.1051
X6.6642Y-4.3327
X6.6654Y-3.2598
X6.6724Y-4.9646
X6.6724Y-5.0161
X6.6744Y-3.4469
X6.676Y-4.5709
X6.6839Y-4.4472
X6.6882Y-4.6606
X6.7Y-3.135
X6.7008Y-5.0563
X6.7039Y-4.9315
X6.7087Y-4.4787
X6.7091Y-4.9693
X6.7146Y-5.013
X6.715Y-4.2917
X6.7197Y-3.3063
X6.7252Y-3.3512
X6.7307Y-3.4453
X6.7307Y-4.6736
X6.7315Y-4.4189
X6.7417Y-5.0571
X6.7437Y-3.1835
X6.7441Y-4.2555
X6.7606Y-4.5657
X6.7701Y-4.3752
X6.772Y-4.6583
X6.7752Y-4.4087
X6.7756Y-3.2217
X6.7783Y-3.4453
X6.7831Y-3.3453
X6.7929Y-4.5323
X6.7961Y-4.2039
X6.8043Y-3.2437
X6.8047Y-4.6984
X6.8075Y-4.3366
X6.8217Y-3.4476
X6.8272Y-4.4035
X6.8283Y-4.5654
X6.8343Y-4.5106
X6.8343Y-4.7299
X6.8398Y-4.6563
X6.8429Y-4.1709
X6.8476Y-4.3
X6.8535Y-3.3472
X6.8594Y-3.2457
X6.8673Y-4.4067
X6.8677Y-3.4429
X6.8681Y-4.5161
X6.8689Y-4.7559
X6.8724Y-4.135
X6.8764Y-4.5559
X6.8819Y-4.2575
X6.8827Y-4.7079
X6.8917Y-4.6602
X6.8984Y-3.2457
X6.9126Y-4.0976
X6.9126Y-4.4094
X6.9134Y-4.3583
X6.9146Y-4.278
X6.9154Y-4.2358
X6.9217Y-4.5657
X6.9232Y-3.4461
X6.924Y-4.3213
X6.9264Y-4.7484
X6.928Y-4.5138
X6.9315Y-4.0512
X6.937Y-4.6602
X6.9386Y-3.3484
X6.9402Y-4.7169
X6.9496Y-3.2484
X6.9563Y-4.552
X6.9626Y-3.4524
X6.9642Y-4.0205
X6.9654Y-4.7453
X6.9776Y-4.678
X6.9957Y-3.4783
X7.0Y-3.9717
X7.0402Y-3.9744
X7.0421Y-3.4799
X7.0783Y-3.4724
X7.0898Y-3.9709
X7.1106Y-3.5764
X7.1106Y-3.6866
X7.1122Y-3.7921
X7.1122Y-3.8339
X7.1122Y-3.8831
X7.1126Y-3.9335
X7.113Y-3.7406
X7.1138Y-3.4661
X7.1138Y-3.6327
X7.1154Y-3.5177
X7.122Y-3.3606
X7.122Y-3.4024
X7.1244Y-3.2957
T2
X3.896Y-2.8201
X3.896Y-2.8988
X3.896Y-4.9343
X3.896Y-5.013
X3.9642Y-2.7807
X3.9642Y-2.9382
X3.9642Y-4.8949
X3.9642Y-5.0524
X4.0324Y-2.8201
X4.0324Y-2.8988
X4.0324Y-4.9343
X4.0324Y-5.013
X6.7936Y-2.8201
X6.7936Y-2.8988
X6.7936Y-4.9343
X6.7936Y-5.013
X6.8618Y-2.7807
X6.8618Y-2.9382
X6.8618Y-4.8949
X6.8618Y-5.0524
X6.93Y-2.8201
X6.93Y-2.8988
X6.93Y-4.9343
X6.93Y-5.013
T3
X4.1394Y-4.9213
X4.1394Y-5.0
X4.1398Y-2.8335
X4.1398Y-2.9122
X4.2181Y-4.9213
X4.2181Y-5.0
X4.2185Y-2.8335
X4.2185Y-2.9122
X4.2969Y-4.9213
X4.2969Y-5.0
X4.2972Y-2.8335
X4.2972Y-2.9122
X4.3756Y-4.9213
X4.3756Y-5.0
X4.376Y-2.8335
X4.376Y-2.9122
X4.4543Y-4.9213
X4.4543Y-5.0
X4.4547Y-2.8335
X4.4547Y-2.9122
X4.5331Y-4.9213
X4.5331Y-5.0
X4.5335Y-2.8335
X4.5335Y-2.9122
X4.6118Y-4.9213
X4.6118Y-5.0
X4.6122Y-2.8335
X4.6122Y-2.9122
X4.6906Y-4.9213
X4.6906Y-5.0
X4.6909Y-2.8335
X4.6909Y-2.9122
X4.7693Y-2.8335
X4.7693Y-4.9213
X4.7693Y-5.0
X4.7697Y-2.9122
X4.848Y-4.9213
X4.848Y-5.0
X4.8484Y-2.8335
X4.8484Y-2.9122
X4.9268Y-4.9213
X4.9268Y-5.0
X4.9272Y-2.8335
X4.9272Y-2.9122
X5.0055Y-4.9213
X5.0055Y-5.0
X5.0059Y-2.8335
X5.0059Y-2.9122
X5.0843Y-4.9213
X5.0843Y-5.0
X5.0846Y-2.8335
X5.0846Y-2.9122
X5.163Y-4.9213
X5.163Y-5.0
X5.1634Y-2.8335
X5.1634Y-2.9122
X5.2417Y-4.9213
X5.2417Y-5.0
X5.2421Y-2.8335
X5.2421Y-2.9122
X5.3205Y-4.9213
X5.3209Y-2.8335
X5.3209Y-2.9122
X5.3209Y-5.0
X5.3992Y-4.9213
X5.3992Y-5.0
X5.3996Y-2.8335
X5.3996Y-2.9122
X5.478Y-4.9213
X5.478Y-5.0
X5.4783Y-2.8335
X5.4783Y-2.9122
X5.5567Y-4.9213
X5.5567Y-5.0
X5.5571Y-2.8335
X5.5571Y-2.9122
X5.6354Y-4.9213
X5.6354Y-5.0
X5.6358Y-2.8335
X5.6358Y-2.9122
X5.7142Y-4.9213
X5.7142Y-5.0
X5.7146Y-2.8335
X5.7146Y-2.9122
X5.7929Y-4.9213
X5.7929Y-5.0
X5.7933Y-2.8335
X5.7933Y-2.9122
X5.8717Y-4.9213
X5.8717Y-5.0
X5.872Y-2.8335
X5.872Y-2.9122
X5.9504Y-4.9213
X5.9504Y-5.0
X5.9508Y-2.8335
X5.9508Y-2.9122
T4
X4.0748Y-2.9663
X4.0748Y-3.0663
X4.0748Y-4.7667
X4.0748Y-4.8667
X4.1748Y-2.9663
X4.1748Y-3.0663
X4.1748Y-4.7667
X4.1748Y-4.8667
X4.2748Y-2.9663
X4.2748Y-3.0663
X4.2748Y-4.7667
X4.2748Y-4.8667
X4.3748Y-2.9663
X4.3748Y-3.0663
X4.3748Y-4.7667
X4.3748Y-4.8667
X4.4748Y-2.9663
X4.4748Y-3.0663
X4.4748Y-4.7667
X4.4748Y-4.8667
X4.5748Y-2.9663
X4.5748Y-3.0663
X4.5748Y-4.7667
X4.5748Y-4.8667
X4.6748Y-2.9663
X4.6748Y-3.0663
X4.6748Y-4.7667
X4.6748Y-4.8667
X4.7748Y-2.9663
X4.7748Y-3.0663
X4.7748Y-4.7667
X4.7748Y-4.8667
X4.8748Y-2.9663
X4.8748Y-3.0663
X4.8748Y-4.7667
X4.8748Y-4.8667
X4.9748Y-2.9663
X4.9748Y-3.0663
X4.9748Y-4.7667
X4.9748Y-4.8667
X5.0748Y-2.9663
X5.0748Y-3.0663
X5.0748Y-4.7667
X5.0748Y-4.8667
X5.1748Y-2.9663
X5.1748Y-3.0663
X5.1748Y-4.7667
X5.1748Y-4.8667
X5.2748Y-2.9663
X5.2748Y-3.0663
X5.2748Y-4.7667
X5.2748Y-4.8667
X5.3748Y-2.9663
X5.3748Y-3.0663
X5.3748Y-4.7667
X5.3748Y-4.8667
X5.4748Y-2.9663
X5.4748Y-3.0663
X5.4748Y-4.7667
X5.4748Y-4.8667
X5.5748Y-4.7667
X5.5748Y-4.8667
X5.6748Y-2.9663
X5.6748Y-3.0663
X5.6748Y-4.7667
X5.6748Y-4.8667
X5.7748Y-2.9663
X5.7748Y-3.0663
X5.8382Y-4.7667
X5.8382Y-4.8667
X5.8748Y-2.9663
X5.8748Y-3.0663
X5.9382Y-4.7667
X5.9382Y-4.8667
X5.9748Y-2.9663
X5.9748Y-3.0663
X6.0382Y-4.7667
X6.0382Y-4.8667
X6.0748Y-2.9663
X6.0748Y-3.0663
X6.1382Y-4.7667
X6.1382Y-4.8667
X6.1748Y-2.9663
X6.1748Y-3.0663
X6.2382Y-4.7667
X6.2382Y-4.8667
X6.2748Y-2.9663
X6.2748Y-3.0663
X6.3382Y-4.7667
X6.3382Y-4.8667
X6.3748Y-2.9663
X6.3748Y-3.0663
X6.4382Y-4.7667
X6.4382Y-4.8667
X6.5382Y-4.7667
X6.5382Y-4.8667
X6.6382Y-4.7667
X6.6382Y-4.8667
X6.7382Y-4.7667
X6.7382Y-4.8667
T5
X7.0425Y-3.1961
X7.0425Y-3.2961
X7.0425Y-3.3961
X7.0425Y-4.0512
X7.0425Y-4.1512
X7.0425Y-4.2512
X7.0425Y-4.5091
X7.0425Y-4.6091
X7.0425Y-4.7091
T6
X3.9642Y-2.8594
X3.9642Y-4.9736
X6.8618Y-2.8594
X6.8618Y-4.9736
T0
M30
